<svg xmlns="http://www.w3.org/2000/svg" width="16.003" height="15.999" viewBox="0 0 16.003 15.999"><defs><style>.a{fill:#2173d8;}</style></defs><g transform="translate(-4670.998 -981)"><path class="a" d="M.857,0a.857.857,0,0,1,.857.857V15.141a.857.857,0,1,1-1.715,0V.857A.857.857,0,0,1,.857,0Z" transform="translate(4678.11 981)"/><path class="a" d="M.811-.046a.857.857,0,0,1,.857.857V4.25a.857.857,0,1,1-1.714,0V.811A.857.857,0,0,1,.811-.046Z" transform="translate(4681.93 981.371) rotate(45)"/><path class="a" d="M1.115.067a.857.857,0,0,1,.857.857V4.363a.857.857,0,1,1-1.714,0V.924A.857.857,0,0,1,1.115.067Z" transform="translate(4679.941 984.813) rotate(135)"/><path class="a" d="M1.115.067a.857.857,0,0,1,.857.857V4.363a.857.857,0,1,1-1.713,0V.924A.856.856,0,0,1,1.115.067Z" transform="translate(4678.057 992.938) rotate(-45)"/><path class="a" d="M.811-.046a.857.857,0,0,1,.857.857V4.249a.857.857,0,0,1-1.714,0V.811A.857.857,0,0,1,.811-.046Z" transform="translate(4676.068 996.379) rotate(-135)"/><path class="a" d="M.857,0a.857.857,0,0,1,.857.857V15.146a.857.857,0,1,1-1.714,0V.857A.857.857,0,0,1,.857,0Z" transform="translate(4687.001 988.111) rotate(90)"/><path class="a" d="M1.115.067a.857.857,0,0,1,.857.857V4.363a.857.857,0,1,1-1.714,0V.924A.857.857,0,0,1,1.115.067Z" transform="translate(4686.925 991.791) rotate(135)"/><path class="a" d="M.811-.046A.857.857,0,0,1,1.667.81V4.249a.857.857,0,0,1-1.714,0V.811A.857.857,0,0,1,.811-.046Z" transform="translate(4683.052 989.648) rotate(-135)"/><path class="a" d="M.811-.046A.856.856,0,0,1,1.667.81V4.249a.857.857,0,1,1-1.713,0V.811A.857.857,0,0,1,.811-.046Z" transform="translate(4675.194 988.35) rotate(45)"/><path class="a" d="M1.115.067a.857.857,0,0,1,.857.857V4.362a.857.857,0,1,1-1.714,0V.924A.857.857,0,0,1,1.115.067Z" transform="translate(4671.321 986.205) rotate(-45)"/></g></svg>