<svg width="20" height="20" viewBox="0 0 20 20" fill="none" xmlns="http://www.w3.org/2000/svg">
<path fill-rule="evenodd" clip-rule="evenodd" d="M8.68729 15.9777C12.6552 15.9777 15.8854 12.7418 15.8854 8.73348C15.8854 4.72512 12.6552 1.48921 8.68729 1.48921C4.71934 1.48921 1.48922 4.72512 1.48922 8.73348C1.48922 12.7418 4.71934 15.9777 8.68729 15.9777ZM15.2513 14.4545C16.574 12.922 17.3746 10.9217 17.3746 8.73348C17.3746 3.91011 13.4851 0 8.68729 0C3.88943 0 0 3.91011 0 8.73348C0 13.5568 3.88943 17.467 8.68729 17.467C10.7732 17.467 12.6874 16.7279 14.1849 15.496L18.7495 19.798C19.0487 20.0801 19.5187 20.0649 19.7992 19.7641C20.0797 19.4633 20.0645 18.9908 19.7652 18.7088L15.2513 14.4545ZM9.35489 5.02485C9.35489 4.67236 9.06914 4.38661 8.71666 4.38661C8.36417 4.38661 8.07842 4.67236 8.07842 5.02485V8.12481L4.99817 8.12481C4.64568 8.12481 4.35993 8.41056 4.35993 8.76305C4.35993 9.11553 4.64568 9.40128 4.99817 9.40128L8.07842 9.40128V12.5008C8.07842 12.8533 8.36417 13.139 8.71665 13.139C9.06914 13.139 9.35489 12.8533 9.35489 12.5008V9.40128H12.4346C12.7871 9.40128 13.0728 9.11553 13.0728 8.76305C13.0728 8.41056 12.7871 8.12481 12.4346 8.12481H9.35489V5.02485Z" fill="#757575"/>
</svg>
