<svg xmlns="http://www.w3.org/2000/svg" width="30" height="30" viewBox="0 0 30 30">
  <g id="그룹_34846" data-name="그룹 34846" transform="translate(4341 11583)">
    <path id="패스_11508" data-name="패스 11508" d="M0,0H30V30H0Z" transform="translate(-4341 -11583)" fill="rgba(255,188,188,0.38)" opacity="0"/>
    <path id="패스_11509" data-name="패스 11509" d="M0,0H30V30H0Z" transform="translate(-4341 -11583)" fill="rgba(255,188,188,0.38)" opacity="0"/>
    <path id="패스_11510" data-name="패스 11510" d="M15,1A14,14,0,0,0,5.1,24.9,14,14,0,1,0,24.9,5.1,13.908,13.908,0,0,0,15,1m0-1A15,15,0,1,1,0,15,15,15,0,0,1,15,0Z" transform="translate(-4341 -11583)"/>
    <path id="패스_11512" data-name="패스 11512" d="M4.342-9.62H1.183V0H3.107V-3.419H4.394c2.067,0,3.718-.988,3.718-3.185C8.112-8.892,6.461-9.62,4.342-9.62ZM4.264-4.94H3.107V-8.1H4.2c1.339,0,2.028.364,2.028,1.495C6.227-5.5,5.577-4.94,4.264-4.94Z" transform="translate(-4330 -11563)" fill="#da0015"/>
    <path id="패스_11511" data-name="패스 11511" d="M12,1A11,11,0,0,0,4.222,19.778,11,11,0,0,0,19.778,4.222,10.928,10.928,0,0,0,12,1m0-1A12,12,0,1,1,0,12,12,12,0,0,1,12,0Z" transform="translate(-4338 -11580)"/>
  </g>
</svg>
