<svg xmlns="http://www.w3.org/2000/svg" width="24" height="24" viewBox="0 0 24 24">
  <g id="그룹_34073" data-name="그룹 34073" transform="translate(-532 -3440)">
    <path id="사각형_513" data-name="사각형 513" d="M5,0H19a5,5,0,0,1,5,5V19a5,5,0,0,1-5,5H5a5,5,0,0,1-5-5V5A5,5,0,0,1,5,0Z" transform="translate(532 3440)" fill="#f02d40"/>
    <path id="사각형_513_-_윤곽선" data-name="사각형 513 - 윤곽선" d="M5,1A4,4,0,0,0,1,5V19a4,4,0,0,0,4,4H19a4,4,0,0,0,4-4V5a4,4,0,0,0-4-4H5M5,0H19a5,5,0,0,1,5,5V19a5,5,0,0,1-5,5H5a5,5,0,0,1-5-5V5A5,5,0,0,1,5,0Z" transform="translate(532 3440)" fill="#f02d40"/>
    <path id="패스_11288" data-name="패스 11288" d="M9.625,18.875a.5.5,0,0,1-.354-.147L4.108,13.54a.5.5,0,1,1,.709-.705l4.756,4.779L18.038,6.386a.5.5,0,0,1,.8.6L10.024,18.676a.5.5,0,0,1-.365.2Z" transform="translate(533.037 3439.813)" fill="#fff"/>
  </g>
</svg>
