<svg xmlns="http://www.w3.org/2000/svg" width="16" height="18" viewBox="0 0 16 18"><defs><style>.a{fill:#1cacb1;}</style></defs><g transform="translate(-4597 -977)"><path class="a" d="M392.125,646.45a6.891,6.891,0,0,0,4.652-1.6,6.023,6.023,0,0,0,1.848-4.632c0-1.636-1.152-3.665-3.333-5.868a28.075,28.075,0,0,0-3.167-2.729,28.081,28.081,0,0,0-3.167,2.729c-2.18,2.2-3.333,4.232-3.333,5.868a6.023,6.023,0,0,0,1.848,4.632,6.891,6.891,0,0,0,4.652,1.6m0,1.5c-4.418,0-8-2.718-8-7.732s7.6-10.158,7.6-10.158a.764.764,0,0,1,.791,0s7.6,5.144,7.6,10.158S396.543,647.95,392.125,647.95Z" transform="translate(4212.875 347.05)"/><path class="a" d="M393.257,671.315a3.975,3.975,0,0,1,4.83-.43c3.368,1.812,3.642,1.388,4.876,1.06.847-.225,1.287-.231,1.481-.057a5.6,5.6,0,0,1-11.193-.29C393.25,671.5,393.253,671.409,393.257,671.315Z" transform="translate(4206.161 315.281)"/></g></svg>